<?xml version="1.0" encoding="UTF-8"?>
<svg width="196px" height="196px" viewBox="0 0 196 196" version="1.1" xmlns="http://www.w3.org/2000/svg" xmlns:xlink="http://www.w3.org/1999/xlink">
    <!-- Generator: Sketch 43.2 (39069) - http://www.bohemiancoding.com/sketch -->
    <title>ItkVtkViewer-logo</title>
    <desc>Created with Sketch.</desc>
    <defs></defs>
    <g id="Page-1" stroke="none" stroke-width="1" fill="none" fill-rule="evenodd">
        <g id="ItkVtkViewer">
            <path d="M67.769437,162.024129 C67.2117935,165.021463 66.4450451,168.123308 65.4691689,171.329759 C64.4932927,174.536209 63.0295004,177.446368 61.077748,180.060322 C59.1259956,182.674276 56.5469329,184.817686 53.3404826,186.490617 C50.1340322,188.163547 46.056325,189 41.1072386,189 C34.7640434,189 29.605918,187.449077 25.6327078,184.347185 C21.6594976,181.245293 19.1152871,177.045603 18,171.747989 L34.1018767,166.520107 C34.3806984,168.402154 35.1125946,170.005355 36.2975871,171.329759 C37.4825797,172.654162 39.0509286,173.316354 41.002681,173.316354 C44.0697204,173.316354 46.2654089,172.235936 47.5898123,170.075067 C48.9142157,167.914198 49.8552251,165.195727 50.4128686,161.919571 L58.9865952,112.986595 L76.5522788,112.986595 L67.769437,162.024129 Z M125.798928,130.970509 C124.404819,129.088462 122.662209,127.659522 120.571046,126.683646 C118.479882,125.70777 116.144785,125.219839 113.565684,125.219839 C112.380691,125.219839 111.126012,125.376674 109.801609,125.690349 C108.477205,126.004023 107.274804,126.526806 106.19437,127.258713 C105.113936,127.99062 104.207778,128.914204 103.475871,130.029491 C102.743964,131.144778 102.378016,132.504013 102.378016,134.107239 C102.378016,136.198402 103.197043,137.853881 104.835121,139.073727 C106.473199,140.293572 108.756018,141.426268 111.683646,142.47185 C114.890096,143.587137 117.747977,144.82439 120.257373,146.183646 C122.766769,147.542902 124.892753,149.093825 126.635389,150.836461 C128.378025,152.579097 129.702408,154.548246 130.608579,156.743968 C131.51475,158.939689 131.967828,161.431621 131.967828,164.219839 C131.967828,168.680987 131.044245,172.479877 129.197051,175.616622 C127.349857,178.753367 124.962481,181.315003 122.034853,183.301609 C119.107224,185.288214 115.831117,186.73458 112.206434,187.640751 C108.581751,188.546921 104.991975,189 101.436997,189 C98.7881905,189 96.1394234,188.756035 93.4906166,188.268097 C90.8418098,187.780158 88.2975993,187.065688 85.8579088,186.124665 C83.4182184,185.183641 81.1528255,183.981241 79.0616622,182.517426 C76.9704989,181.053612 75.1930368,179.380706 73.7292225,177.49866 L86.5898123,167.042895 C88.0536266,169.27347 90.2144629,171.085784 93.0723861,172.479893 C95.9303092,173.874002 98.8230417,174.571046 101.75067,174.571046 C103.28419,174.571046 104.765408,174.414211 106.19437,174.100536 C107.623332,173.786862 108.895437,173.264079 110.010724,172.532172 C111.126011,171.800264 112.014742,170.859255 112.676944,169.709115 C113.339145,168.558975 113.670241,167.182314 113.670241,165.579088 C113.670241,162.999987 112.624675,160.961133 110.533512,159.462466 C108.442349,157.963799 105.654173,156.62199 102.168901,155.436997 C99.7292103,154.600532 97.4463913,153.659523 95.3203753,152.613941 C93.1943593,151.568359 91.3471928,150.278828 89.7788204,148.745308 C88.2104479,147.211789 86.9557688,145.382048 86.0147453,143.256032 C85.0737218,141.130016 84.6032172,138.56838 84.6032172,135.571046 C84.6032172,131.806952 85.3873916,128.408862 86.9557641,125.376676 C88.5241365,122.344489 90.6675467,119.765426 93.386059,117.63941 C96.1045712,115.513394 99.2761213,113.875341 102.900804,112.725201 C106.525487,111.575061 110.394081,111 114.506702,111 C116.667571,111 118.86326,111.209113 121.093834,111.627346 C123.324408,112.045578 125.467818,112.655492 127.524129,113.457105 C129.580439,114.258717 131.479884,115.252005 133.22252,116.436997 C134.965156,117.62199 136.428948,118.981226 137.613941,120.514745 L125.798928,130.970509 Z" id="JS" fill="#8A8B8A"></path>
            <rect id="Rectangle-134" fill="#1C4678" transform="translate(169.748737, 159.748737) rotate(-315.000000) translate(-169.748737, -159.748737) " x="152.248737" y="142.248737" width="35" height="35" rx="17.5"></rect>
            <g id="Group" transform="translate(3.000000, 20.000000)">
                <polygon id="Path-94" fill="#1C4678" points="4.775 2.08166817e-17 25.2581621 86.0686648 47.787502 86.0686648 82.02727 14.6613142 60.8423667 14.6613142 39.9088237 59.0295346 25.2581621 2.08166817e-17"></polygon>
                <polygon id="Path-95" fill="#1C4678" points="85.6632012 14.34375 136.139081 14.34375 128.046342 30.9059381 110.800052 30.8572018 101.147921 85.4767478 82.6093142 85.476745 92.1809484 30.9415527 77.9916667 30.941553"></polygon>
                <polygon id="Path-96" fill="#1C4678" points="138.366196 14.34375 154.438082 14.4095874 150.024108 39.3972074 152.411743 39.3972071 169.267998 14.34375 190.243337 14.34375 167.800877 47.7472529 181.003613 101.809731 160.064138 101.809731 149.412421 57.3801274 147.116438 57.3801274 141.991155 85.515305 120.966667 85.5153071 130.730408 30.4719174"></polygon>
                <polygon id="Path-99" fill="#8A8B8A" points="0 0 3.18219711 0 24.0460481 85.9443963 20.8593586 85.9443963"></polygon>
                <polygon id="Path-100" fill="#8A8B8A" points="55.1015241 14.34375 57.8898582 14.34375 40.7465157 50.155281 39.7916667 46.2891617"></polygon>
                <polygon id="Path-101" fill="#8A8B8A" points="85.6083812 33.46875 88.4914675 33.46875 79.3341428 85.5648665 76.4 85.5648665"></polygon>
                <polygon id="Path-102" fill="#8A8B8A" points="123.785174 33.46875 126.709319 33.46875 117.522718 85.5149889 114.6 85.5149889"></polygon>
                <polygon id="Path-103" fill="#8A8B8A" points="163.380379 14.34375 166.974353 14.34375 154.391667 33.1982334 155.708346 25.6525344"></polygon>
                <polygon id="Path-104" fill="#8A8B8A" points="147.901937 63.75 156.818933 101.362589 153.508047 101.36259 146.433333 72.2903275"></polygon>
            </g>
            <g id="I" transform="translate(49.995905, 74.490619) rotate(27.000000) translate(-49.995905, -74.490619) translate(26.995905, 36.990619)">
                <path d="M29.5812691,72.4560761 C29.5812691,72.4560761 22.5835145,68.1996482 21.0414749,64.2585614 C19.4994353,60.3174746 20.4134108,52.6511571 20.4134108,52.6511571 C20.4134108,52.6511571 14.8961757,53.9686978 14.8961757,60.4961228 C14.8961757,67.0235478 18.4099413,72.5697613 19.9328065,72.5697613 C21.4556718,72.5697613 29.5812691,72.4560761 29.5812691,72.4560761 Z" id="Path-4" stroke="#000000" fill="#E8B222" transform="translate(22.238722, 62.610459) rotate(-26.000000) translate(-22.238722, -62.610459) "></path>
                <path d="M18.9919793,20.0503947 L19.0232077,29.8876168 C19.0232077,29.8876168 26.0364578,36.0870776 28.6893832,37.8299771 C31.3423086,39.5728766 40.0233031,42.050407 40.0233031,42.050407 C40.0233031,42.050407 42.893588,42.2275496 42.938076,48.4094017 C42.9825641,54.5912539 38.6921314,55.1760356 38.6921314,55.1760356 C38.6921314,55.1760356 31.3062473,53.2522958 21.9113373,47.3176684 C12.5164273,41.383041 13.3921852,38.0395195 13.3921852,32.194872 C13.3921852,26.3502246 18.9919793,20.0503947 18.9919793,20.0503947 Z" id="Path-5" stroke="#000000" fill="#E8B222"></path>
                <path d="M0.847837064,6.35773331 C-0.24047464,7.75299662 0.0220618839,10.3903049 0.847837064,11.3620044 C1.64783928,12.3033766 5.42430498,10.6801175 6.83090202,14.1284702 C8.23749905,17.576823 10.1006574,16.5405318 12.6648526,16.5405318 C15.2290478,16.5405318 15.3366089,13.3542613 17.0028656,13.3707843 C18.6691222,13.3873074 19.4983175,13.3707843 20.7132963,13.3707843 C21.9282751,13.3707843 27.128239,15.8028008 30.3214616,17.5574266 C33.5146841,19.3120525 38.5501428,23.1718524 38.5501428,23.1718524 L38.4644701,33.8112209 C38.4644701,33.8112209 45.4951019,29.3232764 45.5612802,20.255539 C45.6274585,11.1878015 36.3335974,7.86132834 33.0111733,6.06396369 C29.6887492,4.26659904 22.4404301,4.24910408 20.9894667,4.24910408 C19.5385033,4.24910408 17.6596987,4.24090689 17.0028656,4.24910408 C15.2116055,4.27145876 16.3927256,0.662879278 12.6648526,0.662879278 C8.93697956,0.662879278 8.57291343,1.72764228 7.43779318,3.56339865 C6.30267294,5.39915503 1.93614877,4.96247 0.847837064,6.35773331 Z" id="Path-6" stroke="#000000" fill="#E8B222"></path>
                <ellipse id="Oval" fill="#000000" cx="9.874977" cy="5.89647807" rx="1.3984375" ry="1"></ellipse>
                <ellipse id="Oval" fill="#000000" cx="9.874977" cy="11.8577684" rx="1.3984375" ry="1"></ellipse>
            </g>
            <g id="eye" transform="translate(53.000000, 3.000000)">
                <ellipse id="Oval-2" stroke="#285299" stroke-width="2" cx="24.1272615" cy="13.8352941" rx="24.1272615" ry="13.8352941"></ellipse>
                <ellipse id="Oval-3" fill="#285299" cx="26.01446" cy="13.2588235" rx="13.8249041" ry="13.2588235"></ellipse>
                <ellipse id="Oval-4" fill="#000000" cx="26.01446" cy="13.8352941" rx="5.40974507" ry="5.76470588"></ellipse>
            </g>
        </g>
    </g>
</svg>