<?xml version="1.0" encoding="UTF-8" standalone="no"?>
<!DOCTYPE svg PUBLIC "-//W3C//DTD SVG 1.1//EN" "http://www.w3.org/Graphics/SVG/1.1/DTD/svg11.dtd">
<svg version="1.1" xmlns="http://www.w3.org/2000/svg" xmlns:xlink="http://www.w3.org/1999/xlink" preserveAspectRatio="xMidYMid meet" viewBox="78.90654205607476 66.53271028037366 92.03738317757015 95.8317757009348" width="88.04" height="91.83"><defs><path d="M131.23 134.9C131.23 148.4 119.73 159.36 105.57 159.36C91.41 159.36 79.91 148.4 79.91 134.9C79.91 121.39 91.41 110.43 105.57 110.43C119.73 110.43 131.23 121.39 131.23 134.9Z" id="bFSMTV5ts"></path><path d="M111.07 79.93C111.07 86.76 105.37 92.32 98.36 92.32C91.34 92.32 85.64 86.76 85.64 79.93C85.64 73.09 91.34 67.53 98.36 67.53C105.37 67.53 111.07 73.09 111.07 79.93Z" id="d6GOeLxPWl"></path><path d="M167.94 92.32C167.94 102.31 159.72 110.43 149.59 110.43C139.46 110.43 131.23 102.31 131.23 92.32C131.23 82.32 139.46 74.21 149.59 74.21C159.72 74.21 167.94 82.32 167.94 92.32Z" id="brgYh541"></path></defs><g><g><use xlink:href="#bFSMTV5ts" opacity="1" fill="#000000" fill-opacity="1"></use><g><filter id="shadow8818224" x="67.91" y="98.43" width="78.33" height="76.93" filterUnits="userSpaceOnUse" primitiveUnits="userSpaceOnUse"><feFlood></feFlood><feComposite in2="SourceAlpha" operator="out"></feComposite><feGaussianBlur stdDeviation="1"></feGaussianBlur><feOffset dx="3" dy="4" result="afterOffset"></feOffset><feFlood flood-color="#878787" flood-opacity="0.59"></feFlood><feComposite in2="afterOffset" operator="in"></feComposite><feMorphology operator="dilate" radius="1"></feMorphology><feComposite in2="SourceAlpha" operator="in"></feComposite></filter><path d="M131.23 134.9C131.23 148.4 119.73 159.36 105.57 159.36C91.41 159.36 79.91 148.4 79.91 134.9C79.91 121.39 91.41 110.43 105.57 110.43C119.73 110.43 131.23 121.39 131.23 134.9Z" id="c1Ztb3wiW" fill="white" fill-opacity="1" filter="url(#shadow8818224)"></path></g></g><g><use xlink:href="#d6GOeLxPWl" opacity="1" fill="#000000" fill-opacity="1"></use><g><filter id="shadow8333713" x="75.64" y="57.53" width="46.42" height="46.79" filterUnits="userSpaceOnUse" primitiveUnits="userSpaceOnUse"><feFlood></feFlood><feComposite in2="SourceAlpha" operator="out"></feComposite><feGaussianBlur stdDeviation="1"></feGaussianBlur><feOffset dx="1" dy="2" result="afterOffset"></feOffset><feFlood flood-color="#878787" flood-opacity="0.59"></feFlood><feComposite in2="afterOffset" operator="in"></feComposite><feMorphology operator="dilate" radius="1"></feMorphology><feComposite in2="SourceAlpha" operator="in"></feComposite></filter><path d="M111.07 79.93C111.07 86.76 105.37 92.32 98.36 92.32C91.34 92.32 85.64 86.76 85.64 79.93C85.64 73.09 91.34 67.53 98.36 67.53C105.37 67.53 111.07 73.09 111.07 79.93Z" id="b6qoMkI9b" fill="white" fill-opacity="1" filter="url(#shadow8333713)"></path></g></g><g><use xlink:href="#brgYh541" opacity="1" fill="#000000" fill-opacity="1"></use><g><filter id="shadow4889558" x="120.23" y="63.21" width="60.71" height="61.22" filterUnits="userSpaceOnUse" primitiveUnits="userSpaceOnUse"><feFlood></feFlood><feComposite in2="SourceAlpha" operator="out"></feComposite><feGaussianBlur stdDeviation="1"></feGaussianBlur><feOffset dx="2" dy="3" result="afterOffset"></feOffset><feFlood flood-color="#878787" flood-opacity="0.59"></feFlood><feComposite in2="afterOffset" operator="in"></feComposite><feMorphology operator="dilate" radius="1"></feMorphology><feComposite in2="SourceAlpha" operator="in"></feComposite></filter><path d="M167.94 92.32C167.94 102.31 159.72 110.43 149.59 110.43C139.46 110.43 131.23 102.31 131.23 92.32C131.23 82.32 139.46 74.21 149.59 74.21C159.72 74.21 167.94 82.32 167.94 92.32Z" id="b3p4zjRg0N" fill="white" fill-opacity="1" filter="url(#shadow4889558)"></path></g></g></g></svg>