<?xml version="1.0" encoding="UTF-8" standalone="no"?>
<!DOCTYPE svg PUBLIC "-//W3C//DTD SVG 1.1//EN" "http://www.w3.org/Graphics/SVG/1.1/DTD/svg11.dtd">
<svg version="1.1" xmlns="http://www.w3.org/2000/svg" xmlns:xlink="http://www.w3.org/1999/xlink" preserveAspectRatio="xMidYMid meet" viewBox="21.654362741230614 18.850229150738443 113.67896134435179 115.80278931174794" width="109.68" height="111.8"><defs><path d="M77.79 19.85L132.33 51.23L77.79 79.05L23.24 51.23L77.79 19.85Z" id="b121B4NhXh"></path><linearGradient id="gradienta2YQa8D9KJ" gradientUnits="userSpaceOnUse" x1="77.79" y1="78.11" x2="76.79" y2="5.31"><stop style="stop-color: #8dbee6;stop-opacity: 1" offset="0%"></stop><stop style="stop-color: #3384c5;stop-opacity: 1" offset="100%"></stop></linearGradient><path d="M77.79 131.63L23.24 105L23.24 51.17L77.79 78.83L77.79 131.63Z" id="aDkWF1Obu"></path><linearGradient id="gradientd3fUAdmkvN" gradientUnits="userSpaceOnUse" x1="76.52" y1="79.05" x2="48.85" y2="115.96"><stop style="stop-color: #7bb2de;stop-opacity: 1" offset="0%"></stop><stop style="stop-color: #3789cb;stop-opacity: 1" offset="100%"></stop></linearGradient><path d="M132.33 105.48L132.31 51.17L77.77 78.26L77.8 131.65L132.33 105.48Z" id="a5p64B6RB4"></path><linearGradient id="gradiente4T0yOe5S" gradientUnits="userSpaceOnUse" x1="77.77" y1="79.05" x2="115.07" y2="113.31"><stop style="stop-color: #7db2dd;stop-opacity: 1" offset="0%"></stop><stop style="stop-color: #3384c5;stop-opacity: 1" offset="100%"></stop></linearGradient><path d="M77.2 48.24L131.75 79.62L77.2 107.43L22.65 79.62L77.2 48.24Z" id="c1iBe5lxy"></path><path d="M107.39 92.02L106.4 37.72L52.36 65.78L53.33 119.16L107.39 92.02Z" id="c9lLZEEbI"></path><path d="M101.39 119L44.95 90.95L46.3 37.13L102.71 66.21L101.39 119Z" id="a43q1lm8NI"></path><path d="M77.18 81.77L77.39 52.98L53.46 67.15L53.25 95.45L77.18 81.77Z" id="arWnKOQc6"></path><path d="M77.7 81.5L102.05 95.3L77.7 107.53L53.35 95.3L77.7 81.5Z" id="b128AFQikU"></path><path d="M43.45 71.07L53.41 81.93L53.21 95.2L43.84 85.8L43.45 71.07Z" id="aljQWjEKS"></path><path d="M44.34 68L53.46 72.93L53.26 82.41L44.68 78.36L44.34 68Z" id="a2Bdq8C0m5"></path><path d="M35.58 74.93L48.54 81.93L52.69 94.55L40.76 88.72L35.58 74.93Z" id="d1BVjenv2S"></path><path d="M107.88 85.3L107.38 91.98L102.01 94.88L102.16 88.78L107.88 85.3Z" id="b48Np9i8o6"></path><path d="M108.38 65.8L107.88 72.48L102.51 75.38L102.66 69.28L108.38 65.8Z" id="b6Fcp9JnoU"></path><path d="M108.08 73.3L107.58 79.98L102.21 82.88L102.36 76.78L108.08 73.3Z" id="b5R5Y3LE0d"></path><path d="M107.98 79.2L107.48 85.88L102.11 88.78L102.26 82.68L107.98 79.2Z" id="bAxeepBTO"></path><path d="M102.44 78.87L108.08 75.26L108.09 69.16L102.79 72.18L102.44 78.87Z" id="a1CfHAzE88"></path></defs><g><g><use xlink:href="#b121B4NhXh" opacity="0.4" fill="url(#gradienta2YQa8D9KJ)"></use></g><g><use xlink:href="#aDkWF1Obu" opacity="0.4" fill="url(#gradientd3fUAdmkvN)"></use><g><use xlink:href="#aDkWF1Obu" opacity="0.4" fill-opacity="0" stroke="#ffffff" stroke-width="1" stroke-opacity="1"></use></g></g><g><use xlink:href="#a5p64B6RB4" opacity="0.4" fill="url(#gradiente4T0yOe5S)"></use><g><use xlink:href="#a5p64B6RB4" opacity="0.4" fill-opacity="0" stroke="#ffffff" stroke-width="1" stroke-opacity="1"></use></g></g><g><use xlink:href="#c1iBe5lxy" opacity="1" fill="#59d87d" fill-opacity="1"></use></g><g><use xlink:href="#c9lLZEEbI" opacity="1" fill="#ff7b7b" fill-opacity="1"></use></g><g><use xlink:href="#a43q1lm8NI" opacity="1" fill="#ffff72" fill-opacity="1"></use></g><g><use xlink:href="#arWnKOQc6" opacity="1" fill="#ff7b7b" fill-opacity="1"></use></g><g><use xlink:href="#b128AFQikU" opacity="1" fill="#59d87d" fill-opacity="1"></use></g><g><use xlink:href="#aljQWjEKS" opacity="1" fill="#59d87d" fill-opacity="1"></use></g><g><use xlink:href="#a2Bdq8C0m5" opacity="1" fill="#59d87d" fill-opacity="1"></use></g><g><use xlink:href="#d1BVjenv2S" opacity="1" fill="#59d87d" fill-opacity="1"></use></g><g><use xlink:href="#b48Np9i8o6" opacity="1" fill="#59d87d" fill-opacity="1"></use></g><g><use xlink:href="#b6Fcp9JnoU" opacity="1" fill="#59d87d" fill-opacity="1"></use></g><g><use xlink:href="#b5R5Y3LE0d" opacity="1" fill="#59d87d" fill-opacity="1"></use></g><g><use xlink:href="#bAxeepBTO" opacity="1" fill="#59d87d" fill-opacity="1"></use></g><g><use xlink:href="#a1CfHAzE88" opacity="1" fill="#59d87d" fill-opacity="1"></use></g></g></svg>