<?xml version="1.0" encoding="UTF-8" standalone="no"?>
<!DOCTYPE svg PUBLIC "-//W3C//DTD SVG 1.1//EN" "http://www.w3.org/Graphics/SVG/1.1/DTD/svg11.dtd">
<svg version="1.1" xmlns="http://www.w3.org/2000/svg" xmlns:xlink="http://www.w3.org/1999/xlink" preserveAspectRatio="xMidYMid meet" viewBox="31.654362741230607 28.850229150738443 113.67896134435179 115.80278931174794" width="109.68" height="111.8"><defs><path d="M87.79 29.85L142.33 61.23L87.79 89.05L33.24 61.23L87.79 29.85Z" id="b6gn5Ph4a"></path><linearGradient id="gradientc5ieAzTlrB" gradientUnits="userSpaceOnUse" x1="87.79" y1="88.11" x2="86.79" y2="15.31"><stop style="stop-color: #8dbee6;stop-opacity: 1" offset="0%"></stop><stop style="stop-color: #3384c5;stop-opacity: 1" offset="100%"></stop></linearGradient><path d="M87.79 141.63L33.24 115L33.24 61.17L87.79 88.83L87.79 141.63Z" id="bcpTLWFe1"></path><linearGradient id="gradienta1vdPb9Tx" gradientUnits="userSpaceOnUse" x1="86.52" y1="89.05" x2="58.85" y2="125.96"><stop style="stop-color: #7bb2de;stop-opacity: 1" offset="0%"></stop><stop style="stop-color: #3789cb;stop-opacity: 1" offset="100%"></stop></linearGradient><path d="M142.33 115.48L142.31 61.17L87.77 88.26L87.8 141.65L142.33 115.48Z" id="doqFZ6o0V"></path><linearGradient id="gradientb6QK8E71A" gradientUnits="userSpaceOnUse" x1="87.77" y1="89.05" x2="125.07" y2="123.31"><stop style="stop-color: #7db2dd;stop-opacity: 1" offset="0%"></stop><stop style="stop-color: #3384c5;stop-opacity: 1" offset="100%"></stop></linearGradient><path d="M87.2 58.24L141.75 89.62L87.2 117.43L32.65 89.62L87.2 58.24Z" id="dDpnVVPsa"></path><path d="M117.39 102.02L116.4 47.72L62.36 75.78L63.33 129.16L117.39 102.02Z" id="b2LmEtWKW7"></path><path d="M111.39 129L54.95 100.95L56.3 47.13L112.71 76.21L111.39 129Z" id="a2vWKwK9hV"></path><path d="M87.18 91.77L87.39 62.98L63.46 77.15L63.25 105.45L87.18 91.77Z" id="blEPHXHzV"></path><path d="M87.7 91.5L112.05 105.3L87.7 117.53L63.35 105.3L87.7 91.5Z" id="d10FgvNsKq"></path><path d="M53.45 81.07L63.41 91.93L63.21 105.2L53.84 95.8L53.45 81.07Z" id="b4fb7ce3g6"></path><path d="M54.34 78L63.46 82.93L63.26 92.41L54.68 88.36L54.34 78Z" id="b4t14UEF2B"></path><path d="M45.58 84.93L58.54 91.93L62.69 104.55L50.76 98.72L45.58 84.93Z" id="b7nuEYAotU"></path><path d="M117.88 95.3L117.38 101.98L112.01 104.88L112.16 98.78L117.88 95.3Z" id="cbfwgDbHI"></path><path d="M118.38 75.8L117.88 82.48L112.51 85.38L112.66 79.28L118.38 75.8Z" id="a7u7rrS51C"></path><path d="M118.08 83.3L117.58 89.98L112.21 92.88L112.36 86.78L118.08 83.3Z" id="b2cAudVEyd"></path><path d="M117.98 89.2L117.48 95.88L112.11 98.78L112.26 92.68L117.98 89.2Z" id="hMEdWtW14"></path><path d="M112.44 88.87L118.08 85.26L118.09 79.16L112.79 82.18L112.44 88.87Z" id="d6AqxDBdCj"></path></defs><g><g><use xlink:href="#b6gn5Ph4a" opacity="0.4" fill="url(#gradientc5ieAzTlrB)"></use></g><g><use xlink:href="#bcpTLWFe1" opacity="0.4" fill="url(#gradienta1vdPb9Tx)"></use><g><use xlink:href="#bcpTLWFe1" opacity="0.4" fill-opacity="0" stroke="#ffffff" stroke-width="1" stroke-opacity="1"></use></g></g><g><use xlink:href="#doqFZ6o0V" opacity="0.4" fill="url(#gradientb6QK8E71A)"></use><g><use xlink:href="#doqFZ6o0V" opacity="0.4" fill-opacity="0" stroke="#ffffff" stroke-width="1" stroke-opacity="1"></use></g></g><g><use xlink:href="#dDpnVVPsa" opacity="1" fill="#59d87d" fill-opacity="1"></use></g><g><use xlink:href="#b2LmEtWKW7" opacity="1" fill="#ffff72" fill-opacity="1"></use></g><g><use xlink:href="#a2vWKwK9hV" opacity="1" fill="#ff7b7b" fill-opacity="1"></use></g><g><use xlink:href="#blEPHXHzV" opacity="1" fill="#ffff72" fill-opacity="1"></use></g><g><use xlink:href="#d10FgvNsKq" opacity="1" fill="#59d87d" fill-opacity="1"></use></g><g><use xlink:href="#b4fb7ce3g6" opacity="1" fill="#59d87d" fill-opacity="1"></use></g><g><use xlink:href="#b4t14UEF2B" opacity="1" fill="#59d87d" fill-opacity="1"></use></g><g><use xlink:href="#b7nuEYAotU" opacity="1" fill="#59d87d" fill-opacity="1"></use></g><g><use xlink:href="#cbfwgDbHI" opacity="1" fill="#59d87d" fill-opacity="1"></use></g><g><use xlink:href="#a7u7rrS51C" opacity="1" fill="#59d87d" fill-opacity="1"></use></g><g><use xlink:href="#b2cAudVEyd" opacity="1" fill="#59d87d" fill-opacity="1"></use></g><g><use xlink:href="#hMEdWtW14" opacity="1" fill="#59d87d" fill-opacity="1"></use></g><g><use xlink:href="#d6AqxDBdCj" opacity="1" fill="#59d87d" fill-opacity="1"></use></g></g></svg>